<svg width="233" height="233" viewBox="0 0 233 233" fill="none" xmlns="http://www.w3.org/2000/svg">
<rect width="233" height="233" fill="#2D2015"/>
<path fill-rule="evenodd" clip-rule="evenodd" d="M95.7554 116.644C95.7973 110.85 98.1066 105.307 102.18 101.224C106.253 97.1419 111.759 94.8508 117.499 94.8508C123.238 94.8508 128.744 97.1419 132.818 101.224C136.891 105.307 139.2 110.85 139.242 116.644C139.2 122.439 136.891 127.982 132.818 132.064C128.744 136.147 123.238 138.438 117.499 138.438C111.759 138.438 106.253 136.147 102.18 132.064C98.1066 127.982 95.7973 122.439 95.7554 116.644V116.644Z" fill="#F79A32"/>
<path fill-rule="evenodd" clip-rule="evenodd" d="M106.627 175.22C106.627 172.308 107.773 169.516 109.812 167.457C111.851 165.398 114.616 164.242 117.5 164.242C120.383 164.242 123.149 165.398 125.188 167.457C127.227 169.516 128.372 172.308 128.372 175.22C128.372 178.131 127.227 180.923 125.188 182.982C123.149 185.041 120.383 186.197 117.5 186.197C114.616 186.197 111.851 185.041 109.812 182.982C107.773 180.923 106.627 178.131 106.627 175.22V175.22Z" fill="#F06431"/>
<path fill-rule="evenodd" clip-rule="evenodd" d="M156.949 145.928C156.949 143.016 158.095 140.224 160.134 138.165C162.173 136.106 164.938 134.95 167.822 134.95C170.705 134.95 173.471 136.106 175.51 138.165C177.549 140.224 178.694 143.016 178.694 145.928C178.694 148.839 177.549 151.631 175.51 153.69C173.471 155.749 170.705 156.905 167.822 156.905C164.938 156.905 162.173 155.749 160.134 153.69C158.095 151.631 156.949 148.839 156.949 145.928V145.928Z" fill="#F06431"/>
<path fill-rule="evenodd" clip-rule="evenodd" d="M156.881 87.2304C156.881 84.3189 158.027 81.5267 160.066 79.468C162.105 77.4093 164.87 76.2527 167.754 76.2527C170.638 76.2527 173.403 77.4093 175.442 79.468C177.481 81.5267 178.627 84.3189 178.627 87.2304C178.627 90.1419 177.481 92.9341 175.442 94.9928C173.403 97.0515 170.638 98.2081 167.754 98.2081C164.87 98.2081 162.105 97.0515 160.066 94.9928C158.027 92.9341 156.881 90.1419 156.881 87.2304V87.2304Z" fill="#F06431"/>
<path fill-rule="evenodd" clip-rule="evenodd" d="M106.71 58.0315C106.71 55.1201 107.856 52.3278 109.895 50.2691C111.934 48.2104 114.699 47.0538 117.583 47.0538C120.467 47.0538 123.232 48.2104 125.271 50.2691C127.31 52.3278 128.456 55.1201 128.456 58.0315C128.456 60.943 127.31 63.7352 125.271 65.7939C123.232 67.8526 120.467 69.0092 117.583 69.0092C114.699 69.0092 111.934 67.8526 109.895 65.7939C107.856 63.7352 106.71 60.943 106.71 58.0315V58.0315Z" fill="#F06431"/>
<path fill-rule="evenodd" clip-rule="evenodd" d="M56.3062 87.264C56.3062 84.3526 57.4517 81.5603 59.4907 79.5016C61.5297 77.4429 64.2952 76.2863 67.1787 76.2863C70.0623 76.2863 72.8278 77.4429 74.8668 79.5016C76.9058 81.5603 78.0513 84.3526 78.0513 87.264C78.0513 90.1755 76.9058 92.9677 74.8668 95.0264C72.8278 97.0851 70.0623 98.2417 67.1787 98.2417C64.2952 98.2417 61.5297 97.0851 59.4907 95.0264C57.4517 92.9677 56.3062 90.1755 56.3062 87.264V87.264Z" fill="#F06431"/>
<path fill-rule="evenodd" clip-rule="evenodd" d="M56.4373 145.864C56.4373 142.953 57.5828 140.16 59.6218 138.102C61.6608 136.043 64.4263 134.886 67.3099 134.886C70.1934 134.886 72.9589 136.043 74.9979 138.102C77.0369 140.16 78.1824 142.953 78.1824 145.864C78.1824 148.775 77.0369 151.568 74.9979 153.626C72.9589 155.685 70.1934 156.842 67.3099 156.842C64.4263 156.842 61.6608 155.685 59.6218 153.626C57.5828 151.568 56.4373 148.775 56.4373 145.864V145.864Z" fill="#F06431"/>
<path fill-rule="evenodd" clip-rule="evenodd" d="M148.459 43.3599C148.459 40.4484 149.605 37.6562 151.644 35.5975C153.683 33.5388 156.448 32.3822 159.332 32.3822C162.216 32.3822 164.981 33.5388 167.02 35.5975C169.059 37.6562 170.204 40.4484 170.204 43.3599C170.204 46.2714 169.059 49.0636 167.02 51.1223C164.981 53.181 162.216 54.3376 159.332 54.3376C156.448 54.3376 153.683 53.181 151.644 51.1223C149.605 49.0636 148.459 46.2714 148.459 43.3599V43.3599Z" fill="#8AB1B0"/>
<path fill-rule="evenodd" clip-rule="evenodd" d="M190.255 116.54C190.255 113.628 191.4 110.836 193.439 108.777C195.478 106.719 198.244 105.562 201.127 105.562C204.011 105.562 206.776 106.719 208.815 108.777C210.854 110.836 212 113.628 212 116.54C212 119.451 210.854 122.244 208.815 124.302C206.776 126.361 204.011 127.518 201.127 127.518C198.244 127.518 195.478 126.361 193.439 124.302C191.4 122.244 190.255 119.451 190.255 116.54V116.54Z" fill="#8AB1B0"/>
<path fill-rule="evenodd" clip-rule="evenodd" d="M148.439 189.727C148.439 186.815 149.585 184.023 151.624 181.964C153.663 179.906 156.428 178.749 159.312 178.749C162.195 178.749 164.961 179.906 167 181.964C169.039 184.023 170.184 186.815 170.184 189.727C170.184 192.638 169.039 195.43 167 197.489C164.961 199.548 162.195 200.704 159.312 200.704C156.428 200.704 153.663 199.548 151.624 197.489C149.585 195.43 148.439 192.638 148.439 189.727V189.727Z" fill="#8AB1B0"/>
<path fill-rule="evenodd" clip-rule="evenodd" d="M64.762 189.711C64.762 186.799 65.9075 184.007 67.9465 181.948C69.9855 179.89 72.751 178.733 75.6346 178.733C78.5182 178.733 81.2837 179.89 83.3227 181.948C85.3617 184.007 86.5072 186.799 86.5072 189.711C86.5072 192.622 85.3617 195.414 83.3227 197.473C81.2837 199.532 78.5182 200.688 75.6346 200.688C72.751 200.688 69.9855 199.532 67.9465 197.473C65.9075 195.414 64.762 192.622 64.762 189.711V189.711Z" fill="#8AB1B0"/>
<path fill-rule="evenodd" clip-rule="evenodd" d="M23 116.678C23 113.766 24.1455 110.974 26.1845 108.915C28.2235 106.857 30.989 105.7 33.8726 105.7C36.7562 105.7 39.5217 106.857 41.5607 108.915C43.5997 110.974 44.7452 113.766 44.7452 116.678C44.7452 119.589 43.5997 122.381 41.5607 124.44C39.5217 126.499 36.7562 127.655 33.8726 127.655C30.989 127.655 28.2235 126.499 26.1845 124.44C24.1455 122.381 23 119.589 23 116.678V116.678Z" fill="#8AB1B0"/>
<path fill-rule="evenodd" clip-rule="evenodd" d="M64.8083 43.3939C64.8083 40.4825 65.9539 37.6902 67.9929 35.6315C70.0319 33.5728 72.7973 32.4162 75.6809 32.4162C78.5645 32.4162 81.33 33.5728 83.369 35.6315C85.408 37.6902 86.5535 40.4825 86.5535 43.3939C86.5535 46.3054 85.408 49.0976 83.369 51.1563C81.33 53.215 78.5645 54.3716 75.6809 54.3716C72.7973 54.3716 70.0319 53.215 67.9929 51.1563C65.9539 49.0976 64.8083 46.3054 64.8083 43.3939V43.3939Z" fill="#8AB1B0"/>
<path fill-rule="evenodd" clip-rule="evenodd" d="M110.511 28.0567C110.511 26.1851 111.247 24.3902 112.558 23.0668C113.868 21.7435 115.646 21 117.5 21C119.353 21 121.131 21.7435 122.442 23.0668C123.753 24.3902 124.489 26.1851 124.489 28.0567C124.489 29.9282 123.753 31.7231 122.442 33.0465C121.131 34.3699 119.353 35.1133 117.5 35.1133C115.646 35.1133 113.868 34.3699 112.558 33.0465C111.247 31.7231 110.511 29.9282 110.511 28.0567V28.0567Z" fill="#98676A"/>
<path fill-rule="evenodd" clip-rule="evenodd" d="M186.762 72.3465C186.762 70.4749 187.499 68.68 188.809 67.3566C190.12 66.0333 191.898 65.2898 193.751 65.2898C195.605 65.2898 197.383 66.0333 198.693 67.3566C200.004 68.68 200.741 70.4749 200.741 72.3465C200.741 74.218 200.004 76.0129 198.693 77.3363C197.383 78.6597 195.605 79.4031 193.751 79.4031C191.898 79.4031 190.12 78.6597 188.809 77.3363C187.499 76.0129 186.762 74.218 186.762 72.3465V72.3465Z" fill="#98676A"/>
<path fill-rule="evenodd" clip-rule="evenodd" d="M186.778 160.743C186.778 158.871 187.515 157.076 188.825 155.753C190.136 154.429 191.914 153.686 193.767 153.686C195.621 153.686 197.399 154.429 198.709 155.753C200.02 157.076 200.757 158.871 200.757 160.743C200.757 162.614 200.02 164.409 198.709 165.732C197.399 167.056 195.621 167.799 193.767 167.799C191.914 167.799 190.136 167.056 188.825 165.732C187.515 164.409 186.778 162.614 186.778 160.743V160.743Z" fill="#98676A"/>
<path fill-rule="evenodd" clip-rule="evenodd" d="M110.511 204.943C110.511 203.072 111.247 201.277 112.558 199.954C113.868 198.63 115.646 197.887 117.5 197.887C119.353 197.887 121.131 198.63 122.442 199.954C123.753 201.277 124.489 203.072 124.489 204.943C124.489 206.815 123.753 208.61 122.442 209.933C121.131 211.257 119.353 212 117.5 212C115.646 212 113.868 211.257 112.558 209.933C111.247 208.61 110.511 206.815 110.511 204.943V204.943Z" fill="#98676A"/>
<path fill-rule="evenodd" clip-rule="evenodd" d="M34.7173 160.701C34.7173 158.829 35.4536 157.034 36.7643 155.711C38.0751 154.388 39.8528 153.644 41.7064 153.644C43.56 153.644 45.3377 154.388 46.6484 155.711C47.9592 157.034 48.6955 158.829 48.6955 160.701C48.6955 162.572 47.9592 164.367 46.6484 165.691C45.3377 167.014 43.56 167.758 41.7064 167.758C39.8528 167.758 38.0751 167.014 36.7643 165.691C35.4536 164.367 34.7173 162.572 34.7173 160.701V160.701Z" fill="#98676A"/>
<path fill-rule="evenodd" clip-rule="evenodd" d="M34.7507 72.4125C34.7507 70.541 35.4871 68.7461 36.7978 67.4227C38.1085 66.0993 39.8862 65.3559 41.7398 65.3559C43.5935 65.3559 45.3712 66.0993 46.6819 67.4227C47.9926 68.7461 48.7289 70.541 48.7289 72.4125C48.7289 74.2841 47.9926 76.079 46.6819 77.4024C45.3712 78.7257 43.5935 79.4692 41.7398 79.4692C39.8862 79.4692 38.1085 78.7257 36.7978 77.4024C35.4871 76.079 34.7507 74.2841 34.7507 72.4125V72.4125Z" fill="#98676A"/>
<path fill-rule="evenodd" clip-rule="evenodd" d="M83.4238 68.78C83.4238 66.9084 84.1601 65.1136 85.4708 63.7902C86.7815 62.4668 88.5592 61.7233 90.4129 61.7233C92.2665 61.7233 94.0442 62.4668 95.3549 63.7902C96.6656 65.1136 97.402 66.9084 97.402 68.78C97.402 70.6515 96.6656 72.4464 95.3549 73.7698C94.0442 75.0932 92.2665 75.8367 90.4129 75.8367C88.5592 75.8367 86.7815 75.0932 85.4708 73.7698C84.1601 72.4464 83.4238 70.6515 83.4238 68.78V68.78Z" fill="#889B4A"/>
<path fill-rule="evenodd" clip-rule="evenodd" d="M138.094 68.8078C138.094 66.9362 138.83 65.1413 140.141 63.8179C141.452 62.4946 143.229 61.7511 145.083 61.7511C146.937 61.7511 148.714 62.4946 150.025 63.8179C151.336 65.1413 152.072 66.9362 152.072 68.8078C152.072 70.6793 151.336 72.4742 150.025 73.7976C148.714 75.121 146.937 75.8644 145.083 75.8644C143.229 75.8644 141.452 75.121 140.141 73.7976C138.83 72.4742 138.094 70.6793 138.094 68.8078V68.8078Z" fill="#889B4A"/>
<path fill-rule="evenodd" clip-rule="evenodd" d="M165.229 116.646C165.229 114.774 165.965 112.979 167.276 111.656C168.586 110.333 170.364 109.589 172.218 109.589C174.071 109.589 175.849 110.333 177.16 111.656C178.471 112.979 179.207 114.774 179.207 116.646C179.207 118.517 178.471 120.312 177.16 121.636C175.849 122.959 174.071 123.702 172.218 123.702C170.364 123.702 168.586 122.959 167.276 121.636C165.965 120.312 165.229 118.517 165.229 116.646V116.646Z" fill="#889B4A"/>
<path fill-rule="evenodd" clip-rule="evenodd" d="M138.202 164.249C138.202 162.377 138.939 160.582 140.25 159.259C141.56 157.935 143.338 157.192 145.192 157.192C147.045 157.192 148.823 157.935 150.134 159.259C151.444 160.582 152.181 162.377 152.181 164.249C152.181 166.12 151.444 167.915 150.134 169.238C148.823 170.562 147.045 171.305 145.192 171.305C143.338 171.305 141.56 170.562 140.25 169.238C138.939 167.915 138.202 166.12 138.202 164.249V164.249Z" fill="#889B4A"/>
<path fill-rule="evenodd" clip-rule="evenodd" d="M83.4238 164.249C83.4238 162.377 84.1601 160.582 85.4708 159.259C86.7815 157.935 88.5592 157.192 90.4129 157.192C92.2665 157.192 94.0442 157.935 95.3549 159.259C96.6656 160.582 97.402 162.377 97.402 164.249C97.402 166.12 96.6656 167.915 95.3549 169.238C94.0442 170.562 92.2665 171.305 90.4129 171.305C88.5592 171.305 86.7815 170.562 85.4708 169.238C84.1601 167.915 83.4238 166.12 83.4238 164.249V164.249Z" fill="#889B4A"/>
<path fill-rule="evenodd" clip-rule="evenodd" d="M56.2886 116.646C56.2886 114.774 57.025 112.979 58.3357 111.656C59.6464 110.333 61.4241 109.589 63.2777 109.589C65.1314 109.589 66.9091 110.333 68.2198 111.656C69.5305 112.979 70.2668 114.774 70.2668 116.646C70.2668 118.517 69.5305 120.312 68.2198 121.636C66.9091 122.959 65.1314 123.702 63.2777 123.702C61.4241 123.702 59.6464 122.959 58.3357 121.636C57.025 120.312 56.2886 118.517 56.2886 116.646V116.646Z" fill="#889B4A"/>
<path fill-rule="evenodd" clip-rule="evenodd" d="M158.892 65.3154C158.892 64.1091 159.367 62.9523 160.212 62.0993C161.056 61.2464 162.202 60.7672 163.397 60.7672C164.592 60.7672 165.737 61.2464 166.582 62.0993C167.427 62.9523 167.902 64.1091 167.902 65.3154C167.902 66.5216 167.427 67.6784 166.582 68.5314C165.737 69.3843 164.592 69.8635 163.397 69.8635C162.202 69.8635 161.056 69.3843 160.212 68.5314C159.367 67.6784 158.892 66.5216 158.892 65.3154V65.3154Z" fill="#4F9A76"/>
<path fill-rule="evenodd" clip-rule="evenodd" d="M134.077 51.1813C134.077 49.9751 134.552 48.8182 135.396 47.9653C136.241 47.1124 137.387 46.6332 138.582 46.6332C139.776 46.6332 140.922 47.1124 141.767 47.9653C142.612 48.8182 143.086 49.9751 143.086 51.1813C143.086 52.3876 142.612 53.5444 141.767 54.3974C140.922 55.2503 139.776 55.7295 138.582 55.7295C137.387 55.7295 136.241 55.2503 135.396 54.3974C134.552 53.5444 134.077 52.3876 134.077 51.1813V51.1813Z" fill="#4F9A76"/>
<path fill-rule="evenodd" clip-rule="evenodd" d="M91.9905 50.9723C91.9905 49.766 92.4651 48.6092 93.3099 47.7562C94.1547 46.9033 95.3005 46.4241 96.4952 46.4241C97.6899 46.4241 98.8356 46.9033 99.6804 47.7562C100.525 48.6092 101 49.766 101 50.9723C101 52.1785 100.525 53.3354 99.6804 54.1883C98.8356 55.0412 97.6899 55.5204 96.4952 55.5204C95.3005 55.5204 94.1547 55.0412 93.3099 54.1883C92.4651 53.3354 91.9905 52.1785 91.9905 50.9723V50.9723Z" fill="#4F9A76"/>
<path fill-rule="evenodd" clip-rule="evenodd" d="M67.5632 65.34C67.5632 64.1338 68.0378 62.9769 68.8825 62.124C69.7273 61.271 70.8731 60.7919 72.0678 60.7919C73.2625 60.7919 74.4082 61.271 75.253 62.124C76.0978 62.9769 76.5724 64.1338 76.5724 65.34C76.5724 66.5462 76.0978 67.7031 75.253 68.556C74.4082 69.409 73.2625 69.8881 72.0678 69.8881C70.8731 69.8881 69.7273 69.409 68.8825 68.556C68.0378 67.7031 67.5632 66.5462 67.5632 65.34V65.34Z" fill="#4F9A76"/>
<path fill-rule="evenodd" clip-rule="evenodd" d="M46.3727 102.378C46.3727 101.171 46.8473 100.015 47.692 99.1617C48.5368 98.3088 49.6826 97.8296 50.8773 97.8296C52.072 97.8296 53.2177 98.3088 54.0625 99.1617C54.9073 100.015 55.3819 101.171 55.3819 102.378C55.3819 103.584 54.9073 104.741 54.0625 105.594C53.2177 106.447 52.072 106.926 50.8773 106.926C49.6826 106.926 48.5368 106.447 47.692 105.594C46.8473 104.741 46.3727 103.584 46.3727 102.378V102.378Z" fill="#4F9A76"/>
<path fill-rule="evenodd" clip-rule="evenodd" d="M46.5217 130.724C46.5217 129.518 46.9963 128.361 47.841 127.508C48.6858 126.655 49.8316 126.176 51.0263 126.176C52.221 126.176 53.3667 126.655 54.2115 127.508C55.0563 128.361 55.5309 129.518 55.5309 130.724C55.5309 131.931 55.0563 133.088 54.2115 133.94C53.3667 134.793 52.221 135.273 51.0263 135.273C49.8316 135.273 48.6858 134.793 47.841 133.94C46.9963 133.088 46.5217 131.931 46.5217 130.724V130.724Z" fill="#4F9A76"/>
<path fill-rule="evenodd" clip-rule="evenodd" d="M67.3741 167.717C67.3741 166.51 67.8487 165.354 68.6935 164.501C69.5383 163.648 70.6841 163.169 71.8788 163.169C73.0735 163.169 74.2192 163.648 75.064 164.501C75.9088 165.354 76.3834 166.51 76.3834 167.717C76.3834 168.923 75.9088 170.08 75.064 170.933C74.2192 171.786 73.0735 172.265 71.8788 172.265C70.6841 172.265 69.5383 171.786 68.6935 170.933C67.8487 170.08 67.3741 168.923 67.3741 167.717V167.717Z" fill="#4F9A76"/>
<path fill-rule="evenodd" clip-rule="evenodd" d="M91.9124 182.04C91.9124 180.834 92.3869 179.677 93.2317 178.824C94.0765 177.971 95.2223 177.492 96.417 177.492C97.6117 177.492 98.7574 177.971 99.6022 178.824C100.447 179.677 100.922 180.834 100.922 182.04C100.922 183.246 100.447 184.403 99.6022 185.256C98.7574 186.109 97.6117 186.588 96.417 186.588C95.2223 186.588 94.0765 186.109 93.2317 185.256C92.3869 184.403 91.9124 183.246 91.9124 182.04V182.04Z" fill="#4F9A76"/>
<path fill-rule="evenodd" clip-rule="evenodd" d="M134.124 181.846C134.124 180.639 134.599 179.483 135.444 178.63C136.288 177.777 137.434 177.298 138.629 177.298C139.823 177.298 140.969 177.777 141.814 178.63C142.659 179.483 143.133 180.639 143.133 181.846C143.133 183.052 142.659 184.209 141.814 185.062C140.969 185.915 139.823 186.394 138.629 186.394C137.434 186.394 136.288 185.915 135.444 185.062C134.599 184.209 134.124 183.052 134.124 181.846V181.846Z" fill="#4F9A76"/>
<path fill-rule="evenodd" clip-rule="evenodd" d="M158.99 167.8C158.99 166.594 159.465 165.437 160.31 164.584C161.154 163.731 162.3 163.252 163.495 163.252C164.69 163.252 165.835 163.731 166.68 164.584C167.525 165.437 168 166.594 168 167.8C168 169.006 167.525 170.163 166.68 171.016C165.835 171.869 164.69 172.348 163.495 172.348C162.3 172.348 161.154 171.869 160.31 171.016C159.465 170.163 158.99 169.006 158.99 167.8V167.8Z" fill="#4F9A76"/>
<path fill-rule="evenodd" clip-rule="evenodd" d="M179.642 130.927C179.642 129.721 180.117 128.564 180.962 127.711C181.807 126.858 182.952 126.379 184.147 126.379C185.342 126.379 186.488 126.858 187.332 127.711C188.177 128.564 188.652 129.721 188.652 130.927C188.652 132.133 188.177 133.29 187.332 134.143C186.488 134.996 185.342 135.475 184.147 135.475C182.952 135.475 181.807 134.996 180.962 134.143C180.117 133.29 179.642 132.133 179.642 130.927V130.927Z" fill="#4F9A76"/>
<path fill-rule="evenodd" clip-rule="evenodd" d="M179.718 102.149C179.718 100.943 180.193 99.7864 181.038 98.9334C181.882 98.0805 183.028 97.6013 184.223 97.6013C185.418 97.6013 186.563 98.0805 187.408 98.9334C188.253 99.7864 188.727 100.943 188.727 102.149C188.727 103.356 188.253 104.513 187.408 105.365C186.563 106.218 185.418 106.698 184.223 106.698C183.028 106.698 181.882 106.218 181.038 105.365C180.193 104.513 179.718 103.356 179.718 102.149V102.149Z" fill="#4F9A76"/>
</svg>
